<svg id="visual" viewBox="0 0 900 600" width="900" height="600" xmlns="http://www.w3.org/2000/svg" xmlns:xlink="http://www.w3.org/1999/xlink" version="1.1"><rect x="0" y="0" width="900" height="600" fill="#719663"></rect><defs><linearGradient id="grad1_0" x1="33.3%" y1="100%" x2="100%" y2="0%"><stop offset="20%" stop-color="#719663" stop-opacity="1"></stop><stop offset="80%" stop-color="#719663" stop-opacity="1"></stop></linearGradient></defs><defs><linearGradient id="grad2_0" x1="0%" y1="100%" x2="66.7%" y2="0%"><stop offset="20%" stop-color="#719663" stop-opacity="1"></stop><stop offset="80%" stop-color="#719663" stop-opacity="1"></stop></linearGradient></defs><g transform="translate(900, 600)"><path d="M-243.4 0C-236.9 -42.4 -230.4 -84.7 -210.8 -121.7C-191.1 -158.6 -158.3 -190.2 -121 -209.6C-83.7 -229 -41.8 -236.2 0 -243.4L0 0Z" fill="#BDD17F"></path></g><g transform="translate(0, 0)"><path d="M243.4 0C237 42.5 230.5 85 210.8 121.7C191 158.4 157.9 189.4 120.5 208.7C83.1 228 41.6 235.7 0 243.4L0 0Z" fill="#BDD17F"></path></g></svg>